<mxfile host="app.diagrams.net" modified="2024-05-08T15:33:48.712Z" agent="Mozilla/5.0 (Windows NT 10.0; Win64; x64) AppleWebKit/537.36 (KHTML, like Gecko) Chrome/124.0.0.0 Safari/537.36" etag="FXWMZw3G2lK627Pr98vC" version="24.3.1" type="device">
  <diagram name="Seite-1" id="PzyiCLerY_ozZ9RZ1Zt8">
    <mxGraphModel dx="1363" dy="797" grid="1" gridSize="10" guides="1" tooltips="1" connect="1" arrows="1" fold="1" page="1" pageScale="1" pageWidth="827" pageHeight="1169" math="0" shadow="0">
      <root>
        <mxCell id="0" />
        <mxCell id="1" parent="0" />
        <mxCell id="h4c2qX7Srzp1Nm6jLfnz-1" value="Header" style="rounded=0;whiteSpace=wrap;html=1;fillColor=#dae8fc;strokeColor=#6c8ebf;fontSize=30;" vertex="1" parent="1">
          <mxGeometry x="120" y="40" width="330" height="80" as="geometry" />
        </mxCell>
        <mxCell id="h4c2qX7Srzp1Nm6jLfnz-2" value="Nav" style="rounded=0;whiteSpace=wrap;html=1;fillColor=#d5e8d4;strokeColor=#82b366;fontSize=30;" vertex="1" parent="1">
          <mxGeometry x="120" y="120" width="330" height="80" as="geometry" />
        </mxCell>
        <mxCell id="h4c2qX7Srzp1Nm6jLfnz-3" value="Sidebar 1" style="rounded=0;whiteSpace=wrap;html=1;fillColor=#fff2cc;strokeColor=#d6b656;fontSize=30;" vertex="1" parent="1">
          <mxGeometry x="120" y="200" width="330" height="80" as="geometry" />
        </mxCell>
        <mxCell id="h4c2qX7Srzp1Nm6jLfnz-4" value="Sidebar 2" style="rounded=0;whiteSpace=wrap;html=1;fillColor=#ffe6cc;strokeColor=#d79b00;fontSize=30;" vertex="1" parent="1">
          <mxGeometry x="120" y="520" width="330" height="80" as="geometry" />
        </mxCell>
        <mxCell id="h4c2qX7Srzp1Nm6jLfnz-5" value="Section 1" style="rounded=0;whiteSpace=wrap;html=1;fillColor=#f8cecc;strokeColor=#b85450;fontSize=30;" vertex="1" parent="1">
          <mxGeometry x="120" y="280" width="330" height="80" as="geometry" />
        </mxCell>
        <mxCell id="h4c2qX7Srzp1Nm6jLfnz-6" value="Section 2" style="rounded=0;whiteSpace=wrap;html=1;fillColor=#f8cecc;strokeColor=#b85450;fontSize=30;" vertex="1" parent="1">
          <mxGeometry x="120" y="360" width="330" height="80" as="geometry" />
        </mxCell>
        <mxCell id="h4c2qX7Srzp1Nm6jLfnz-7" value="Section 3" style="rounded=0;whiteSpace=wrap;html=1;fillColor=#f8cecc;strokeColor=#b85450;fontSize=30;" vertex="1" parent="1">
          <mxGeometry x="120" y="440" width="330" height="80" as="geometry" />
        </mxCell>
        <mxCell id="h4c2qX7Srzp1Nm6jLfnz-8" value="Footer" style="rounded=0;whiteSpace=wrap;html=1;fillColor=#647687;strokeColor=#314354;fontSize=30;fontColor=#ffffff;" vertex="1" parent="1">
          <mxGeometry x="120" y="600" width="330" height="80" as="geometry" />
        </mxCell>
      </root>
    </mxGraphModel>
  </diagram>
</mxfile>
